<svg width="306" height="13" viewBox="0 0 306 13" fill="none" xmlns="http://www.w3.org/2000/svg">
<path d="M280.941 3.53846C274.33 3.13729 267.605 2.73479 260.879 2.33228C258.714 2.19901 256.433 2.17207 254.267 2.0388C249.478 1.87456 244.689 1.71031 239.9 1.54607C237.278 1.40741 234.541 1.37509 231.919 1.23643C231.121 1.227 230.322 1.21758 229.638 1.2095C227.927 1.1893 226.216 1.1691 224.392 1.14755C216.522 1.05463 208.652 0.96171 200.783 0.86879C198.958 0.847243 197.019 0.82435 195.193 0.910488C190.515 0.96296 185.953 0.909093 181.276 0.961564C176.028 1.0073 170.782 0.945356 165.534 0.991094C157.092 1.10681 148.535 1.22118 140.093 1.3369C135.187 1.38667 130.282 1.43645 125.376 1.48623C116.933 1.70963 108.489 1.93303 100.045 2.15643C95.3668 2.31659 90.8034 2.37041 86.1247 2.53056C77.3364 2.96529 68.5493 3.29234 59.7622 3.61938C55.0835 3.77954 50.4048 3.9397 45.7249 4.20754C37.0493 4.7513 28.2584 5.4014 19.5815 6.05285C17.7554 6.13899 15.814 6.33146 13.8738 6.41625C10.2203 6.69621 6.45024 7.1902 2.68143 7.5765C2.45333 7.5738 2.22395 7.6788 1.99585 7.6761C1.53964 7.67072 1.19494 7.88205 0.84897 8.20106C0.272352 8.73275 0.0366189 9.37617 0.02899 10.0223C0.021361 10.6684 0.241836 11.3172 0.807011 11.7547C1.25813 12.1908 2.05268 12.5233 2.62294 12.53C7.19012 12.1531 11.6445 11.6672 16.2117 11.2904C20.4354 11.0171 24.6592 10.7439 28.8829 10.4707C33.4488 10.2015 38.016 9.82461 42.6959 9.55677C44.522 9.47063 46.3494 9.2768 48.2896 9.19201C55.4787 8.9538 62.555 8.60655 69.7441 8.36834C74.1947 8.20549 78.6452 8.04264 83.0958 7.87979C84.9219 7.79365 86.748 7.70751 88.5741 7.62138C95.6492 7.38181 102.723 7.24994 109.798 7.01038C114.133 6.95387 118.356 6.78832 122.691 6.73181C124.174 6.74932 125.544 6.65779 127.026 6.6753C134.67 6.55016 142.313 6.5327 149.957 6.40756C154.178 6.3497 158.514 6.29319 162.735 6.23533C164.217 6.25284 165.815 6.164 167.298 6.18151C175.169 6.16675 183.039 6.25967 191.023 6.24625C195.928 6.30415 200.833 6.25438 205.737 6.31228C214.063 6.41059 222.503 6.51024 230.828 6.71624C232.424 6.73509 234.134 6.86297 235.731 6.88183C240.405 7.04473 244.966 7.20628 249.64 7.47686C253.06 7.62495 256.595 7.77438 260.015 7.92246C262.523 8.05977 264.916 8.19574 267.424 8.33305C274.606 8.74094 281.9 9.25787 289.08 9.77345C290.904 9.90268 292.727 10.0319 294.551 10.1611C296.489 10.2917 298.54 10.4236 300.477 10.6619C300.819 10.666 301.046 10.7763 301.386 10.8881C302.184 11.0052 302.868 11.0132 303.557 10.5906C304.245 10.2756 304.709 9.63489 304.945 8.99147C305.418 7.59696 304.523 6.0786 302.931 5.629C301.567 5.28979 300.199 5.16594 298.947 4.93576C298.036 4.8173 297.125 4.69885 296.213 4.68807C294.39 4.45116 292.565 4.42961 290.857 4.19404C287.665 4.04865 284.246 3.79288 280.941 3.53846Z" fill="#E30613"/>
</svg>
